<svg width="341" height="105" viewBox="0 0 341 105" fill="none" xmlns="http://www.w3.org/2000/svg">
<path d="M48.6874 22.5405C54.9118 22.5405 59.9577 17.4947 59.9577 11.2703C59.9577 5.04585 54.9118 0 48.6874 0C42.463 0 37.4171 5.04585 37.4171 11.2703C37.4171 17.4947 42.463 22.5405 48.6874 22.5405Z" fill="#0066FF"/>
<path d="M18.593 13.6183L8.21261 19.6114C3.56321 22.2957 0.699097 27.2565 0.699097 32.6252V70.6856C0.699097 76.0543 3.56321 81.0151 8.21261 83.6994L18.593 89.6925V13.6183Z" fill="#0066FF"/>
<path d="M78.7818 89.6925L89.1622 83.6994C93.8116 81.0151 96.6757 76.0543 96.6757 70.6856V32.6252C96.6757 27.2565 93.8116 22.2957 89.1622 19.6114L78.7818 13.6183V89.6925Z" fill="#0066FF"/>
<path d="M37.4171 47.8986C37.4171 41.6742 42.463 36.6284 48.6874 36.6284C54.9118 36.6284 59.9577 41.6742 59.9577 47.8986V92.9797C59.9577 99.2041 54.9118 104.25 48.6874 104.25C42.463 104.25 37.4171 99.2041 37.4171 92.9797V47.8986Z" fill="#0066FF"/>
<path d="M135.166 87.3164H123.019V33.2296H135.166V87.3164ZM122.269 19.183C122.269 17.3168 122.853 15.7672 124.019 14.5342C125.219 13.3011 126.918 12.6846 129.118 12.6846C131.317 12.6846 133.017 13.3011 134.216 14.5342C135.416 15.7672 136.016 17.3168 136.016 19.183C136.016 21.0159 135.416 22.5489 134.216 23.7819C133.017 24.9816 131.317 25.5815 129.118 25.5815C126.918 25.5815 125.219 24.9816 124.019 23.7819C122.853 22.5489 122.269 21.0159 122.269 19.183Z" fill="#F9F9FA"/>
<path d="M159.71 33.2296L160.06 39.4781C164.059 34.6459 169.308 32.2299 175.806 32.2299C187.07 32.2299 192.802 38.6783 193.002 51.5751V87.3164H180.855V52.275C180.855 48.8425 180.105 46.3098 178.606 44.6768C177.139 43.0106 174.723 42.1774 171.357 42.1774C166.459 42.1774 162.81 44.3936 160.41 48.8258V87.3164H148.263V33.2296H159.71Z" fill="#F9F9FA"/>
<path d="M233.742 44.3269C232.143 44.0603 230.493 43.927 228.793 43.927C223.228 43.927 219.479 46.0598 217.546 50.3254V87.3164H205.399V33.2296H216.996L217.296 39.2781C220.229 34.5793 224.295 32.2299 229.493 32.2299C231.226 32.2299 232.659 32.4631 233.792 32.9297L233.742 44.3269Z" fill="#F9F9FA"/>
<path d="M237.341 59.7731C237.341 54.4744 238.391 49.7089 240.491 45.4766C242.59 41.211 245.539 37.9451 249.338 35.679C253.137 33.3796 257.503 32.2299 262.435 32.2299C269.733 32.2299 275.649 34.5793 280.181 39.2781C284.746 43.977 287.212 50.2088 287.579 57.9736L287.629 60.8229C287.629 66.1549 286.596 70.9204 284.53 75.1194C282.497 79.3184 279.564 82.5676 275.732 84.867C271.933 87.1664 267.534 88.3162 262.535 88.3162C254.904 88.3162 248.789 85.7835 244.19 80.718C239.624 75.6193 237.341 68.8376 237.341 60.373V59.7731ZM249.488 60.8229C249.488 66.3882 250.638 70.7538 252.938 73.9197C255.237 77.0523 258.436 78.6185 262.535 78.6185C266.634 78.6185 269.817 77.0189 272.083 73.8197C274.382 70.6205 275.532 65.9383 275.532 59.7731C275.532 54.3078 274.349 49.9755 271.983 46.7763C269.65 43.5771 266.468 41.9775 262.435 41.9775C258.47 41.9775 255.32 43.5604 252.988 46.7263C250.655 49.8589 249.488 54.5577 249.488 60.8229Z" fill="#F9F9FA"/>
<path d="M328.219 72.62C328.219 70.4539 327.319 68.8043 325.52 67.6712C323.754 66.5382 320.804 65.5384 316.672 64.6719C312.54 63.8055 309.09 62.7058 306.324 61.3727C300.259 58.4401 297.227 54.1912 297.227 48.6259C297.227 43.9603 299.193 40.0613 303.125 36.9287C307.058 33.7961 312.056 32.2299 318.122 32.2299C324.587 32.2299 329.802 33.8295 333.768 37.0287C337.767 40.2279 339.766 44.3769 339.766 49.4756H327.619C327.619 47.1429 326.753 45.21 325.02 43.6771C323.287 42.1108 320.988 41.3276 318.122 41.3276C315.456 41.3276 313.273 41.9442 311.573 43.1772C309.907 44.4102 309.074 46.0598 309.074 48.126C309.074 49.9922 309.857 51.4418 311.423 52.4749C312.99 53.508 316.155 54.5577 320.921 55.6241C325.686 56.6572 329.419 57.9069 332.118 59.3732C334.851 60.8062 336.867 62.5391 338.167 64.572C339.5 66.6048 340.166 69.0709 340.166 71.9702C340.166 76.8356 338.15 80.7847 334.118 83.8173C330.085 86.8165 324.803 88.3162 318.272 88.3162C313.839 88.3162 309.89 87.5164 306.424 85.9168C302.959 84.3171 300.259 82.1177 298.326 79.3184C296.394 76.519 295.427 73.5031 295.427 70.2706H307.224C307.391 73.1365 308.474 75.3527 310.473 76.919C312.473 78.4519 315.122 79.2184 318.422 79.2184C321.621 79.2184 324.053 78.6185 325.72 77.4188C327.386 76.1858 328.219 74.5862 328.219 72.62Z" fill="#F9F9FA"/>
</svg>
